# File created by Blade
# Date/Time:  Tue Sep 23 19:15:59 2014
# Frame Rate: 120.000 fps
#------------------------------------------------------
:FULLY-SPECIFIED
:DEGREES
1850
root 2.159713 32.285733 -6.336652 49.588996 -46.124454 -27.447281
Spine -36.210249 -13.407560 26.078253
Head 7.425974 -5.992095 -9.248920
LeftShoulder 5.937977 30.774355 36.987582
LeftArm 70.591953 -1.174355 -53.480259
LeftForeArm 66.322143 -0.000000 76.959795
LeftHand 43.719621 -0.000000 -5.021737
LeftHandThumb1 -26.253704 0.000000 33.147579
RightShoulder 1.093397 -47.888851 -22.194313
RightArm 64.296490 -3.261060 69.560724
RightForeArm 63.533488 -0.000000 100.399316
RightHand 12.202576 -0.000000 22.468968
RightHandThumb1 -24.326973 -0.000000 -32.862282
LeftUpLeg -43.298386 12.657051 5.263073
LeftLeg 31.334339 -0.000000 -0.000000
LeftFoot -19.365323 12.566090 3.828865
LeftToeBase 2.331416 -0.000000 -0.000000
RightUpLeg -184.219696 32.869831 20.321439
RightLeg 88.956984 -0.000000 -0.000000
RightFoot 40.426114 -19.630588 14.830104
RightToeBase 48.288597 -0.000000 -0.000000
1851
root 2.155731 32.289312 -6.355438 49.403843 -45.933656 -27.276983
Spine -36.194766 -13.426832 26.055071
Head 7.406455 -6.094381 -9.294129
LeftShoulder 5.900245 30.934767 37.013843
LeftArm 70.423069 -1.394421 -53.704897
LeftForeArm 66.378006 0.000000 77.327950
LeftHand 43.690438 -0.000000 -5.088181
LeftHandThumb1 -26.253704 0.000000 33.147579
RightShoulder 0.972876 -48.079390 -22.074294
RightArm 64.355778 -3.266677 69.514495
RightForeArm 63.655335 -0.000000 100.602003
RightHand 12.197741 -0.000000 22.466844
RightHandThumb1 -24.326973 -0.000000 -32.862282
LeftUpLeg -43.261077 12.488877 5.332514
LeftLeg 31.253237 -0.000000 -0.000000
LeftFoot -19.289080 12.580330 3.906004
LeftToeBase 2.337638 -0.000000 -0.000000
RightUpLeg -184.134071 33.006277 20.194024
RightLeg 88.584014 -0.000000 -0.000000
RightFoot 40.478364 -19.424286 14.740283
RightToeBase 48.384908 -0.000000 -0.000000
1852
root 2.151475 32.289971 -6.372446 49.182272 -45.799546 -27.090205
Spine -36.146562 -13.442233 25.974034
Head 7.413605 -6.202201 -9.346662
LeftShoulder 5.893047 31.030211 37.026118
LeftArm 70.163782 -1.615853 -53.822983
LeftForeArm 66.540461 0.000000 77.688422
LeftHand 43.539022 -0.000000 -4.897445
LeftHandThumb1 -26.253704 0.000000 33.147579
RightShoulder 0.728972 -48.216336 -21.870405
RightArm 64.464861 -3.284040 69.418959
RightForeArm 63.456377 -0.000000 100.785348
RightHand 12.189406 -0.000000 22.313703
RightHandThumb1 -24.326973 -0.000000 -32.862282
LeftUpLeg -43.204590 12.286175 5.379928
LeftLeg 31.208737 -0.000000 -0.000000
LeftFoot -19.215700 12.660344 3.946654
LeftToeBase 2.337092 -0.000000 -0.000000
RightUpLeg -184.019731 33.140663 20.014340
RightLeg 88.211375 -0.000000 -0.000000
RightFoot 40.562243 -19.282402 14.689738
RightToeBase 48.490213 -0.000000 -0.000000
1853
root 2.145959 32.292518 -6.384985 48.976873 -45.652155 -26.956972
Spine -36.104035 -13.487910 25.971500
Head 7.485179 -6.226782 -9.446754
LeftShoulder 5.852636 31.226458 36.977374
LeftArm 70.000538 -1.841161 -53.978315
LeftForeArm 66.514174 -0.000000 77.916068
LeftHand 43.477248 0.000000 -4.860717
LeftHandThumb1 -26.253704 0.000000 33.147579
RightShoulder 0.446606 -48.256726 -21.639185
RightArm 64.654122 -3.295539 69.237618
RightForeArm 63.073867 0.000000 100.894351
RightHand 12.076111 -0.000000 22.119793
RightHandThumb1 -24.326973 -0.000000 -32.862282
LeftUpLeg -43.137331 12.171331 5.426649
LeftLeg 31.184962 -0.000000 -0.000000
LeftFoot -19.146770 12.688468 4.031952
LeftToeBase 2.295979 -0.000000 -0.000000
RightUpLeg -183.880732 33.271824 19.877216
RightLeg 87.918866 -0.000000 -0.000000
RightFoot 40.591346 -19.412304 14.760156
RightToeBase 48.296653 -0.000000 -0.000000
1854
root 2.139214 32.295266 -6.395316 48.725969 -45.458992 -26.849013
Spine -36.025554 -13.602843 26.036623
Head 7.604116 -6.227217 -9.582493
LeftShoulder 5.811068 31.449408 36.868637
LeftArm 69.881528 -2.084612 -54.099041
LeftForeArm 66.488467 0.000000 78.040591
LeftHand 43.404011 -0.000000 -4.756450
LeftHandThumb1 -26.253704 0.000000 33.147579
RightShoulder 0.155935 -48.212163 -21.414595
RightArm 64.945403 -3.310903 68.919827
RightForeArm 62.699991 -0.000000 100.863112
RightHand 12.012945 -0.000000 22.033215
RightHandThumb1 -24.326973 -0.000000 -32.862282
LeftUpLeg -43.022867 12.040515 5.528594
LeftLeg 31.185402 -0.000000 -0.000000
LeftFoot -19.087040 12.675942 4.071688
LeftToeBase 2.316882 -0.000000 -0.000000
RightUpLeg -183.680122 33.276657 19.817053
RightLeg 87.656410 -0.000000 -0.000000
RightFoot 40.661578 -19.345710 14.868162
RightToeBase 48.293830 -0.000000 -0.000000
1855
root 2.126211 32.298171 -6.401404 48.413008 -45.272035 -26.792207
Spine -35.886079 -13.793293 26.148700
Head 7.802484 -6.163821 -9.763153
LeftShoulder 5.769472 31.836475 36.711628
LeftArm 69.845774 -2.402815 -54.118463
LeftForeArm 66.422927 0.000000 78.140250
LeftHand 43.131487 0.000000 -4.588251
LeftHandThumb1 -26.253704 0.000000 33.147579
RightShoulder 0.062159 -47.986396 -21.380163
RightArm 65.133694 -3.388227 68.611207
RightForeArm 62.393650 0.000000 100.738519
RightHand 11.868304 -0.000000 21.925930
RightHandThumb1 -24.326973 -0.000000 -32.862282
LeftUpLeg -42.785920 11.965765 5.656450
LeftLeg 31.177778 -0.000000 -0.000000
LeftFoot -19.061312 12.646823 4.146738
LeftToeBase 2.281879 -0.000000 -0.000000
RightUpLeg -183.380750 33.164550 19.838787
RightLeg 87.447658 -0.000000 -0.000000
RightFoot 40.911241 -19.005807 14.918620
RightToeBase 48.073654 -0.000000 -0.000000
